<svg width="60" height="60" viewBox="0 0 60 60" fill="none" xmlns="http://www.w3.org/2000/svg">
<g clip-path="url(#clip0_147_3)">
<path d="M60.2513 30.5513C60.2513 30.5427 60.2508 30.5341 60.2507 30.5213C60.2365 29.8768 59.719 29.3633 59.0667 29.3633H58.7558L53.9549 20.0812C53.7523 19.6891 53.3484 19.4452 52.9024 19.4451L44.7058 19.4434L45.0185 16.9647C45.1077 15.9741 44.8015 15.0389 44.156 14.331C43.5118 13.6245 42.6122 13.2354 41.623 13.2354H16.1838C15.5441 13.2354 15.0008 13.7303 14.9398 14.3683L14.6848 16.4105H29.1789C30.12 16.4105 30.863 17.1735 30.8384 18.1146C30.8136 19.0557 30.0308 19.8186 29.0896 19.8186H24.2551C24.2559 19.8211 24.2568 19.8229 24.2576 19.8272H10.0606C9.39501 19.8272 8.84131 20.3667 8.82391 21.0322C8.8065 21.6978 9.33184 22.2372 9.9974 22.2372H28.7928C29.6652 22.3718 30.317 23.1261 30.2931 24.0396C30.2668 25.0429 29.4363 25.8563 28.4348 25.8647H15.4768C14.8046 25.8647 14.2454 26.4096 14.2277 27.0819C14.2101 27.7542 14.7408 28.2991 15.413 28.2991H28.2184C29.1036 28.4225 29.7685 29.183 29.7444 30.1054C29.718 31.1137 28.8791 31.9312 27.8707 31.9312H13.1801L11.9458 31.9325C11.2735 31.9325 10.7143 32.4775 10.6967 33.1497C10.679 33.822 11.2096 34.3669 11.882 34.3669H12.9473L12.5306 38.7267C12.4413 39.7171 12.7475 40.6524 13.3931 41.3603C14.0373 42.0669 14.9369 42.4559 15.9261 42.4559H16.8451C17.283 44.9601 19.4496 46.8522 22.0998 46.8522C24.75 46.8522 27.0157 44.9601 27.5845 42.456H39.0527C39.98 42.456 40.8578 42.1016 41.5462 41.5209C42.1758 42.1251 43.0103 42.456 43.9215 42.456H44.1101C44.5479 44.9601 46.7145 46.8522 49.3649 46.8522C52.015 46.8522 54.2807 44.9601 54.8495 42.456H55.6065C57.5784 42.456 59.3273 40.8528 59.505 38.8823L60.2468 30.6656C60.2478 30.6527 60.2473 30.6441 60.248 30.6313C60.2492 30.6141 60.2515 30.597 60.252 30.5807C60.2523 30.5721 60.2513 30.5598 60.2513 30.5513ZM22.1636 44.4176C20.4857 44.4176 19.1563 43.0527 19.2002 41.3748C19.2442 39.6967 20.645 38.3316 22.3229 38.3316C24.0008 38.3316 25.3301 39.6967 25.2862 41.3748C25.2422 43.0527 23.8415 44.4176 22.1636 44.4176ZM49.4286 44.4176C47.7508 44.4176 46.4215 43.0527 46.4653 41.3748C46.5092 39.6967 47.9101 38.3316 49.588 38.3316C51.2659 38.3316 52.5953 39.6967 52.5512 41.3748C52.5073 43.0527 51.1065 44.4176 49.4286 44.4176ZM57.0799 38.7264C57.0166 39.4284 56.3711 40.0214 55.6704 40.0214H54.8516C54.3095 37.6536 52.2049 35.8973 49.6516 35.8973C47.0983 35.8973 44.9019 37.6536 44.2359 40.0214H43.9853C43.6758 40.0214 43.3998 39.9052 43.2076 39.6944C43.0142 39.4822 42.9231 39.1938 42.9512 38.8818L44.486 21.8787L48.0109 21.8795L47.4522 28.0691C47.3627 29.0595 47.6688 29.9948 48.3143 30.7027C48.9584 31.4094 49.8583 31.7987 50.8476 31.7987H57.705L57.0799 38.7264Z" fill="black" fill-opacity="0.37"/>
</g>
<defs>
<clipPath id="clip0_147_3">
<rect width="60" height="60" fill="white"/>
</clipPath>
</defs>
</svg>
