<svg width="60" height="60" viewBox="0 0 60 60" fill="none" xmlns="http://www.w3.org/2000/svg">
<path d="M34.948 13.6115C34.948 13.6115 21.7209 12.0834 15.0702 11.3146C13.0124 11.0765 11.1524 12.5521 10.9143 14.609C10.589 17.4225 10.199 20.8021 10.199 20.8021" stroke="#222A33" stroke-opacity="0.6" stroke-width="2" stroke-miterlimit="2" stroke-linecap="round" stroke-linejoin="round"/>
<path d="M14.0635 19.1288C14.0635 19.1288 14.2257 17.731 14.3654 16.5206C14.4188 16.0594 14.6532 15.6375 15.0169 15.3497C15.3807 15.061 15.8438 14.9288 16.305 14.9822C17.5829 15.1294 19.095 15.3047 19.095 15.3047" stroke="#222A33" stroke-opacity="0.6" stroke-width="2" stroke-miterlimit="2" stroke-linecap="round" stroke-linejoin="round"/>
<path d="M50.625 42.3741C51.435 42.1407 52.1475 41.6391 52.6406 40.9463C53.2172 40.1354 53.4488 39.1294 53.2838 38.1488C52.3931 32.8641 50.7666 23.2069 49.8769 17.9222C49.7119 16.9416 49.1635 16.066 48.3535 15.4894C47.5435 14.9129 46.5366 14.6813 45.556 14.8472C37.4006 16.2207 17.9475 19.4972 9.79127 20.8707C8.81065 21.0357 7.93596 21.5832 7.35939 22.3941C6.78283 23.2041 6.55127 24.2101 6.71627 25.1916C7.60689 30.4763 9.23346 40.1326 10.1231 45.4182C10.2881 46.3988 10.8366 47.2735 11.6466 47.8501C12.4566 48.4266 13.4635 48.6582 14.4441 48.4932C18.5963 47.7938 24.3797 46.8197 31.4063 45.6357" stroke="#222A33" stroke-opacity="0.6" stroke-width="2" stroke-miterlimit="2" stroke-linecap="round" stroke-linejoin="round"/>
<path d="M18.2568 44.2997C18.2568 44.2997 16.8497 44.5369 15.6103 44.746C15.12 44.8285 14.6165 44.7132 14.2115 44.4244C13.8065 44.1357 13.5328 43.6988 13.4493 43.2085C13.2525 42.0366 13.034 40.741 13.034 40.741M41.7431 19.0397C41.7431 19.0397 43.1503 18.8025 44.3897 18.5944C44.88 18.511 45.3834 18.6272 45.7884 18.915C46.1934 19.2038 46.4672 19.6416 46.5506 20.1319C46.7475 21.3028 46.9659 22.5985 46.9659 22.5985M10.9987 28.6566C10.9987 28.6566 10.7803 27.361 10.5834 26.1891C10.5009 25.6988 10.6162 25.1953 10.905 24.7903C11.1928 24.3853 11.6306 24.1116 12.1209 24.0291C13.3603 23.82 14.7675 23.5828 14.7675 23.5828" stroke="#222A33" stroke-opacity="0.6" stroke-width="2" stroke-miterlimit="2" stroke-linecap="round" stroke-linejoin="round"/>
<path d="M31.1448 27.9262C30.6629 27.4687 29.9785 27.2353 29.2735 27.3534C28.0819 27.554 27.2776 28.6847 27.4782 29.8753C27.6788 31.0659 28.8094 31.8703 30.0001 31.6696C31.1907 31.469 32.3213 32.2734 32.5219 33.464C32.7226 34.6556 31.9182 35.7853 30.7266 35.9859C30.0216 36.105 29.3373 35.8706 28.8554 35.4131" stroke="#222A33" stroke-opacity="0.6" stroke-width="2" stroke-miterlimit="2" stroke-linecap="round" stroke-linejoin="round"/>
<path d="M29.2735 27.3534L28.9819 25.6274" stroke="#222A33" stroke-opacity="0.6" stroke-width="2" stroke-miterlimit="2" stroke-linecap="round" stroke-linejoin="round"/>
<path d="M31.0181 37.7119L30.7266 35.986" stroke="#222A33" stroke-opacity="0.6" stroke-width="2" stroke-miterlimit="2" stroke-linecap="round" stroke-linejoin="round"/>
<path fill-rule="evenodd" clip-rule="evenodd" d="M50.625 39.375C50.625 37.8216 49.3659 36.5625 47.8125 36.5625C45.1322 36.5625 41.1178 36.5625 38.4375 36.5625C36.8841 36.5625 35.625 37.8216 35.625 39.375C35.625 41.1581 35.625 43.5066 35.625 45.5569C35.625 48.3506 37.2787 50.88 39.8391 51.9994C41.5472 52.7475 43.125 53.4375 43.125 53.4375C43.125 53.4375 44.7028 52.7475 46.4109 51.9994C48.9713 50.88 50.625 48.3506 50.625 45.5569C50.625 43.5066 50.625 41.1581 50.625 39.375Z" stroke="#222A33" stroke-opacity="0.6" stroke-width="2" stroke-miterlimit="2" stroke-linecap="round" stroke-linejoin="round"/>
<path d="M40.0781 44.295L42.4219 46.17L46.1719 42.8888" stroke="#222A33" stroke-opacity="0.6" stroke-width="2" stroke-miterlimit="2" stroke-linecap="round" stroke-linejoin="round"/>
</svg>
