<svg width="26" height="49" viewBox="0 0 26 49" fill="none" xmlns="http://www.w3.org/2000/svg">
<path d="M4.37777 2.9087e-06C5.52464 0.000280091 6.62445 0.516073 7.43529 1.43394L24.7338 21.0099C25.5445 21.9276 26 23.1722 26 24.4699C26 25.7676 25.5445 27.0122 24.7338 27.93L7.43529 47.5059C7.03635 47.9733 6.55915 48.3462 6.03153 48.6027C5.50391 48.8592 4.93643 48.9942 4.36221 48.9998C3.78799 49.0055 3.21852 48.8816 2.68704 48.6356C2.15556 48.3895 1.67271 48.0261 1.26666 47.5666C0.860607 47.1071 0.53949 46.5607 0.322043 45.9592C0.104597 45.3577 -0.00482662 44.7133 0.000163214 44.0635C0.00515304 43.4137 0.124454 42.7715 0.351103 42.1744C0.577753 41.5773 0.907215 41.0373 1.32026 40.5858L15.5613 24.4699L1.32026 8.35404C0.715637 7.6696 0.303905 6.79767 0.137114 5.84847C-0.0296761 4.89927 0.0559616 3.91541 0.383207 3.02128C0.710451 2.12715 1.26461 1.36289 1.97562 0.82512C2.68664 0.287348 3.52258 0.000209554 4.37777 2.9087e-06Z" fill="white" fill-opacity="0.79"/>
</svg>
